<svg width="188" height="38" viewBox="0 0 188 38" fill="none" xmlns="http://www.w3.org/2000/svg">
<g clip-path="url(#clip0_211_464)">
<path d="M29.81 34.11L28.1 35.82C27.93 35.99 27.72 36.11 27.48 36.19C27.25 36.26 27 36.27 26.77 36.22C26.53 36.17 26.31 36.06 26.13 35.9C25.94 35.74 25.81 35.54 25.72 35.31L20.73 22.06L14.38 28.13L14.86 33.14C14.97 34.11 14.86 34.7 13.99 35.58L12.84 36.73C12.66 36.92 12.45 37.06 12.21 37.15C11.97 37.24 11.71 37.26 11.45 37.22C11.09 37.17 10.59 36.97 10.24 36.33L6.95001 30.51C6.95001 30.51 6.91001 30.42 6.88001 30.38C6.88001 30.38 6.79001 30.33 6.75001 30.3L0.890007 26.99C0.260007 26.64 0.0800075 26.15 0.0200075 25.79C-0.0199925 25.56 0.0200075 25.32 0.0800075 25.08C0.160007 24.86 0.290007 24.65 0.460007 24.48L1.67001 23.27C2.32001 22.62 3.26001 22.27 4.11001 22.37L9.02001 22.85L15.17 16.52L1.93001 11.55C1.71001 11.46 1.50001 11.33 1.34001 11.14C1.18001 10.95 1.07001 10.74 1.02001 10.5C0.970007 10.26 0.980007 10.02 1.05001 9.79C1.12001 9.56 1.25001 9.34 1.42001 9.17L3.14001 7.45C3.39001 7.22 3.68001 7.04 4.01001 6.93C4.33001 6.82 4.68001 6.8 5.02001 6.84L22.79 8.57L26.4 4.77C26.66 4.48 27.4 3.73 27.58 3.56C31.13 2.86102e-06 34.39 -0.949997 36.32 0.980003C36.93 1.59 37.81 2.95 36.9 5.29C36.36 6.67 35.3 8.17 33.74 9.73C33.57 9.9 32.81 10.65 32.53 10.91L28.73 14.52L30.44 32.31C30.48 32.65 30.44 32.99 30.34 33.31C30.24 33.63 30.05 33.93 29.82 34.18V34.11H29.81Z" fill="#3A78C9"/>
<path d="M48.86 13.1H43.25V8.85999H59.54V13.1H53.9V28.76H48.86V13.1Z" fill="#3A78C9"/>
<path d="M61.1 8.84998H66.14V28.76H61.1V8.84998Z" fill="#3A78C9"/>
<path d="M68.7 8.84998H82.82V13.09H73.74V16.82H80.38V20.78H73.74V24.51H82.82V28.75H68.7V8.84998Z" fill="#3A78C9"/>
<path d="M83.82 8.84998H89L92.33 20.64L95.55 8.84998H99.14L102.16 20.67L105.46 8.84998H110.64L105.15 28.76H100.51L97.23 17.2L93.99 28.76H89.32L83.83 8.84998H83.82Z" fill="#3A78C9"/>
<path d="M116.82 13.1H111.21V8.85999H127.5V13.1H121.86V28.76H116.82V13.1Z" fill="#3A78C9"/>
<path d="M132.75 27.87C131.12 26.99 129.85 25.78 128.91 24.21C127.97 22.64 127.5 20.84 127.5 18.82C127.5 16.8 127.97 14.99 128.91 13.41C129.85 11.84 131.13 10.61 132.75 9.73999C134.38 8.85999 136.19 8.42999 138.21 8.42999C140.23 8.42999 142.01 8.86999 143.63 9.73999C145.26 10.62 146.53 11.84 147.46 13.41C148.39 14.98 148.85 16.79 148.85 18.82C148.85 20.85 148.39 22.65 147.46 24.21C146.53 25.77 145.25 27 143.63 27.87C142 28.75 140.2 29.18 138.21 29.18C136.22 29.18 134.38 28.74 132.75 27.87ZM140.97 23.77C141.81 23.31 142.47 22.66 142.96 21.81C143.45 20.96 143.7 19.96 143.7 18.82C143.7 17.68 143.46 16.69 142.98 15.85C142.5 15.01 141.84 14.35 141.01 13.89C140.17 13.43 139.24 13.19 138.22 13.19C137.2 13.19 136.24 13.42 135.4 13.89C134.56 14.36 133.91 15.01 133.42 15.85C132.94 16.7 132.7 17.69 132.7 18.82C132.7 19.95 132.94 20.95 133.42 21.81C133.9 22.67 134.57 23.32 135.41 23.77C136.26 24.23 137.19 24.46 138.21 24.46C139.23 24.46 140.14 24.23 140.97 23.77Z" fill="#3A78C9"/>
<path d="M152.98 26.78C151.46 25.17 150.7 23.06 150.7 20.41V8.84998H155.74V20.47C155.74 21.8 156.1 22.8 156.81 23.49C157.52 24.18 158.51 24.52 159.76 24.52C161.01 24.52 161.99 24.18 162.69 23.49C163.39 22.8 163.74 21.8 163.74 20.47V8.84998H168.78V20.41C168.78 23.07 168.03 25.2 166.52 26.79C165.01 28.39 162.76 29.18 159.76 29.18C156.76 29.18 154.5 28.38 152.98 26.78Z" fill="#3A78C9"/>
<path d="M171.2 8.84998H180.14C182.47 8.84998 184.3 9.43998 185.62 10.62C186.94 11.8 187.59 13.49 187.59 15.69C187.59 17.17 187.27 18.43 186.63 19.48C185.99 20.53 185.08 21.3 183.9 21.81L187.43 28.76H182.25L179.09 22.53H176.24V28.76H171.2V8.84998ZM179.26 18.27C180.27 18.27 181.05 18.07 181.59 17.69C182.13 17.31 182.41 16.64 182.41 15.68C182.41 14.72 182.14 14.01 181.6 13.64C181.06 13.27 180.28 13.09 179.25 13.09H176.23V18.27H179.26Z" fill="#3A78C9"/>
</g>
<defs>
<clipPath id="clip0_211_464">
<rect width="187.59" height="37.24" fill="#3A78C9"/>
</clipPath>
</defs>
</svg>